<svg xmlns="http://www.w3.org/2000/svg" viewBox="0 0 512 512">
  <!-- Background circle -->
  <circle cx="256" cy="256" r="240" fill="#0067C5"/>
  
  <!-- Robot head -->
  <rect x="156" y="180" width="200" height="180" rx="20" fill="#ffffff"/>
  
  <!-- Robot eyes -->
  <circle cx="206" cy="250" r="25" fill="#0067C5"/>
  <circle cx="306" cy="250" r="25" fill="#0067C5"/>
  
  <!-- Eye highlights -->
  <circle cx="198" cy="242" r="8" fill="#ffffff"/>
  <circle cx="298" cy="242" r="8" fill="#ffffff"/>
  
  <!-- Smiling mouth -->
  <path d="M196 315 Q256 350 316 315" stroke="#0067C5" stroke-width="12" stroke-linecap="round" fill="none"/>
  
  <!-- Antenna -->
  <rect x="246" y="140" width="20" height="50" fill="#ffffff"/>
  <circle cx="256" cy="125" r="25" fill="#66CC66"/>
  <!-- Antenna glow -->
  <circle cx="256" cy="125" r="18" fill="#88EE88"/>
  <circle cx="256" cy="125" r="10" fill="#AAFFAA"/>
  
  <!-- Robot ears/sides -->
  <rect x="126" y="220" width="30" height="60" rx="5" fill="#ffffff"/>
  <rect x="356" y="220" width="30" height="60" rx="5" fill="#ffffff"/>
  
  <!-- Robot body hint -->
  <rect x="186" y="360" width="140" height="60" rx="10" fill="#ffffff"/>
  <circle cx="226" cy="390" r="12" fill="#0067C5"/>
  <circle cx="286" cy="390" r="12" fill="#0067C5"/>
</svg>
